<?xml version="1.0" encoding="UTF-8"?>
<svg id="Laag_1" data-name="Laag 1" xmlns="http://www.w3.org/2000/svg" viewBox="0 0 320 104.56">
  <defs>
    <style>
      .cls-1 {
        font-family: Arial-BoldMT, Arial;
        font-weight: 700;
      }

      .cls-1, .cls-2 {
        fill: #fff;
      }

      .cls-3 {
        font-size: 21.1px;
      }

      .cls-4 {
        fill: #60368c;
      }

      .cls-5 {
        font-size: 37.51px;
      }
    </style>
  </defs>
  <rect class="cls-4" width="320" height="104.56"/>
  <text class="cls-1" transform="translate(77.9 36.7)"><tspan class="cls-5"><tspan x="0" y="0">KRC </tspan></tspan><tspan class="cls-5"><tspan x="0" y="32.83">HARELBEKE</tspan></tspan><tspan class="cls-3"><tspan x="0" y="58.15">Minivoetbal competitie</tspan></tspan></text>
  <g id="Xsvqs8.tif">
    <g>
      <path class="cls-2" d="M41.16,77.23c.18.11.96,1.62.92,1.85-.03.19-1.22,1.54-1.32,1.54-.02,0-.18-.2-.3-.25-.37-.17-.92-.33-1.31-.39.04-.25.16-.43.19-.69.05-.44.08-1.11,0-1.52.42.11,1.53-.71,1.82-.54Z"/>
      <path class="cls-2" d="M37.49,82.09c-.63.1-1.15-.12-1.74-.22-.08-.02-.27.06-.29.04-.01-.01,0-.24-.05-.36-.23-.47-.63-.87-.69-1.48.51.02.89-.51,1.24-.83.42.67,1.03,1.04,1.69,1.42-.19.42-.54,1.03-.17,1.43Z"/>
      <path class="cls-2" d="M38.23,75.18c-.18.48-.36,1.17-.18,1.66-.69-.03-1.24.5-1.79.83-.51-.92-1.41-.6-.55-1.74.22-.29.58-.47.7-.83.6.07,1.21-.06,1.83.08Z"/>
      <path class="cls-2" d="M41.63,82c-.77.79-1.91,1.4-3.04,1.29.21-.13.16-.6.19-.64.03-.03.6-.1.79-.17.25-.1,1.04-.64,1.1-.65.07,0,.68.33.95.17Z"/>
      <path class="cls-2" d="M41.5,75.22c.11.1.63.57.5.7-.28-.17-.62.06-.86,0-.03,0-.29-.39-.44-.51s-.51-.32-.69-.41c-.13-.07-.39-.09-.41-.1-.02-.02.19-.49,0-.64.68.03,1.41.52,1.89.96Z"/>
      <path class="cls-2" d="M52.65,78.35c.15.11.56.48.59.65.08.43-.76-.25-.83.09-.03.16.38.33.27.6l-.92-.88c-.15-.37.74.05.78.05.34-.05-.23-.54-.14-.64.08.02.17.08.24.13Z"/>
      <path class="cls-2" d="M57.72,72.63c.45.54-.29,1.26-1.01.53-.65-.65.44-1.21,1.01-.53ZM56.88,72.52c-.61.17.64,1.06.77.59.08-.26-.59-.64-.77-.59Z"/>
      <path class="cls-2" d="M33.71,77.62s.16-.49.19-.51c.07-.05.25.05.27.15.02.09-.27.8-.27,1.1-.01.56.42,1.03-.18,1.43.07-.67-.1-1.52,0-2.16Z"/>
      <path class="cls-2" d="M56.37,75.55l-.18-.46c-.27-.06-.14.25-.43.25-.63.02-.69-1.02-.09-.97.55.05.84.68.7,1.18ZM55.89,74.74c-.1-.17-.71-.18-.41.27.15.23.62.1.41-.27Z"/>
      <path class="cls-2" d="M53.88,76.56s-.13.24-.09.41c.1.34.62-.29.46.52.13-.01.28.03.4,0,.11-.03,0-.22.15-.19.07.17-.2.52-.33.54-.09.02-.89-.65-.94-.8-.09-.25.26-.58.35-.48Z"/>
      <path class="cls-2" d="M50.84,79.7l-.18.46c.29.15.63-.12.88.08.39.3-.14.9-.33.74-.18-.14.18-.2.19-.24.02-.12,0-.28-.09-.37-.17-.12-.68.26-.88-.13-.15-.3.34-.63.42-.55Z"/>
      <path class="cls-2" d="M53.24,77.3c.09.1-.44.4.04.83s.79-.09.88,0c-.26.96-1.5.25-1.25-.56.04-.11.23-.38.33-.27Z"/>
      <path class="cls-2" d="M51.95,80.34c.15-.41-.92-.96-.74-1.2.39-.2.43.26.64.51s.86.41.09.69Z"/>
      <path class="cls-2" d="M56.83,74.54l.18-.54c-.26-.12-.34-.08-.54.08l-.09-.46c-.34-.09-.26.19-.46.28-.02-.16.03-.34.18-.42.18-.09,1,.29,1.06.41.14.27,0,.65-.32.65Z"/>
      <path class="cls-2" d="M46.53,10.09c.16-.1,3.24.3,3.71.37,1.12.15,2.39.34,3.49.56.2.04,1.34.3,1.4.34.26.17-.61,1.38.08,1.78.33.19,1.23.38,1.54.11.29-.25.28-1.32.69-1.33l5.96,1.97c.09.08.06.14.05.24-.1.72-.94,2.19-.89,2.81.02.29,1.05.4,1.26.69-.16.43-.86,3.05-1.06,3.19-.33.23-1.27-.46-1.52-.14l-1.15,3.32c-2.56-.82-5.16-1.56-7.81-2.09-11.28-2.27-23.24-1.69-34.21,1.72-.32-.09-1.06-3.07-1.27-3.2-.3-.19-1.47.53-1.69.36s-1.06-2.76-1.14-3.23c.49-.2,1.59-.26,1.45-.95-.11-.55-.68-1.58-.72-2.06,0-.13.02-.24.13-.32l6.46-2.11c.51-.02.27.9.86,1.07.19.05,1.29-.24,1.39-.37.38-.48-.42-1.14.45-1.4,1.84-.54,5.69-1.19,7.6-1.24.86-.02.47.22.69.79s1.02.46,1.53.41c1.21-.13.61-.73.94-1.48.44.08.86-.07,1.27-.09,2.08-.11,4.94-.13,7.01,0,1.61.1.8.28,1.07,1.23.12.42,1.39.49,1.78.44.83-.11.49-1.24.7-1.37ZM36.66,11.65c.15.1,3.07,0,3.55,0,.12,0,.41-.61.05-.78-.2-.1-2.07-.07-2.44-.05-.2.01-.98.07-1.09.11-.27.09-.1.7-.06.72ZM28.63,11.39c-.44.04-3.21.41-3.35.62-.1.15,0,.52.14.61.23.14,1.28-.17,1.62-.22.49-.07,1.39-.07,1.82-.21.2-.06.38-.85-.23-.79ZM51.75,11.93c-.1-.15-3.29-.66-3.61-.55-.23.07-.23.63,0,.71l3.3.56c.3.02.41-.55.3-.72ZM16.88,16.79c.22.14,1.98-.59,2.36-.7,8.72-2.58,19.31-2.99,28.33-1.96,4.39.5,8.77,1.42,12.9,2.94.37.02.59-.52.19-.76-.62-.36-2.33-.84-3.09-1.06-10.02-2.9-23.15-3.13-33.37-1.2-.92.17-7.11,1.63-7.39,2.09-.08.13-.03.58.06.63ZM58.6,14.3l3.27,1.01c.33,0,.58-.69.14-.79l-3.13-1.02c-.28-.03-.49.65-.29.8ZM19.43,14.31c.04-.29-.01-.75-.39-.73-.46.15-3.08.85-3.24,1.1-.14.22.05.7.36.65l3.27-1.02ZM34.68,15.51h3.41c.32,0,.3-.68.14-.79-.11-.08-1.79-.06-2.08-.04-.23.01-1.52.12-1.57.18-.09.14-.07.6.1.65ZM40.78,14.7c-.32.08-.39.78-.02.82l3.31.19c.37-.07.41-.76,0-.83l-3.29-.17ZM31.39,14.99c-.9.04-1.79.19-2.68.26-.2.06-.19.49-.14.66.11.32,1.04,0,1.32-.03.62-.06,1.73-.02,2.29-.2.21-.07.22-.57.07-.68s-.64-.02-.85-.01ZM46.62,15.16c-.08.05-.15.52-.07.64.15.2,1.6.24,1.93.28.31.04,1.61.38,1.76.17.03-.04.12-.38.12-.44,0-.29-.57-.33-.79-.37-.39-.07-2.79-.39-2.95-.29ZM25.96,15.63c-.49.04-2.9.47-3.23.64-.24.12-.19.54.03.67.35.21,2.84-.57,3.44-.52.21-.07.37-.85-.23-.79ZM56.16,16.73l-3.26-.75c-.48-.11-.51.45-.31.78l3.1.68c.45.21.73-.51.47-.71ZM36.54,16.73c-.5.11-.46.72-.02.81.37.07,2.85.07,3.22,0s.53-.73-.1-.82c-.46-.07-2.68-.08-3.1.01ZM33.97,16.92c-.1-.1-.34-.12-.48-.12-.86.28-2.33,0-3.12.3-.24.09-.27.66.07.72.68.13,1.7-.11,2.4-.18.29-.03.78.06,1-.01.2-.07.29-.55.13-.7ZM45.95,17.8c.09-.06.21-.62-.05-.71-.87-.29-2.36-.02-3.29-.29-.25.01-.41.16-.42.42-.01.58.68.37,1.06.41.45.05,2.45.33,2.7.17ZM16.97,18.63c.23.15,2.94-.92,3.43-1.01.21-.05.09-.52,0-.64-.14-.2-.51-.02-.71.03-.34.08-2.83.87-2.92.99-.05.08.15.6.19.62ZM27.99,17.46c-.12-.07-.24-.09-.37-.08-.71.02-2.24.29-2.95.46s-.45.77-.03.81c.78.07,2.33-.56,3.21-.48.23-.07.16-.51.14-.71ZM51.93,17.93l-3.35-.56c-.42-.11-.49.76-.26.82,1-.1,2.37.49,3.3.46.4-.01.45-.61.3-.72ZM58.31,18.18c.68.04,1.64.71,2.26.74.35.02.54-.54.25-.72-.22-.13-1.9-.74-2.11-.75-.39-.02-.44.43-.4.73ZM40.48,18.28c-.98-.16-2.38.12-3.41,0-.22.17-.12.48-.14.74.78.02,1.57-.02,2.35,0,.34,0,1.19.3,1.38-.09.11-.24.12-.6-.18-.65ZM34.63,18.38c-.13-.11-3.05.1-3.44.18-.36.07-.44.5-.19.74.21.19,1.31-.07,1.66-.09.38-.02,1.8.09,1.99-.15.09-.12.06-.6-.02-.67ZM46.69,18.75c-.17-.2-2.98-.17-3.45-.37-.38.02-.44.72-.16.81l3.3.3c.37.12.4-.63.31-.73ZM54.4,18.38c-.28.05-.37.68-.09.8.47.03,3.15.92,3.35.8.26-.16.26-.6-.07-.77-.82-.42-2.3-.46-3.19-.83ZM22.01,18.47c-.1-.07-.67.07-.84.11-.45.09-2.28.54-2.59.73-.22.13-.2.49-.07.67.09.12.36.05.49.03.95-.13,2.06-.69,3.05-.82.28,0,0-.68-.04-.71ZM24.99,20c.06.07.19.09.28.08.65-.28,2.95-.23,3.38-.57.21-.16-.01-.78-.32-.7-.93.25-2.25.18-3.13.47-.34.11-.44.44-.21.71ZM49.06,19.02c-.2.07-.37.76.03.78.56-.02,3.11.64,3.41.46.24-.14.28-.7-.09-.74l-3.35-.5ZM19.08,20.68c-.1.12,0,.75.31.72l3.24-.81c.41-.09.17-.8-.19-.75-.42.13-3.23.7-3.36.84ZM58.47,21.05c-.1-.16-3.14-.9-3.57-.92-.07.16-.2.63-.05.74.55-.02,3.11.98,3.38.9.19-.05.33-.57.23-.72Z"/>
      <path class="cls-2" d="M36.18,20.97c8.84-.32,19.02,1.29,27.18,4.72.4.17,1.85.75,2.08.96.09.09.13.16.18.28.4.91.75,2.41,1.01,3.41,4.27,16.02,3.48,34.57-6.64,48.24-4.93,6.66-12.55,12.46-20.14,15.77-.72.31-1.12.67-1.9.4-2.86-.99-7.13-3.61-9.66-5.35C8.36,75.72,4.22,52.18,10.44,29.77c.15-.54.73-2.77.98-3.07.16-.2,1.76-.85,2.12-1.01,6.86-2.9,15.19-4.44,22.63-4.72ZM55.12,82.04c13.35-13.79,15.17-34.5,9.88-52.36-.11-.39-.45-1.69-.67-1.91s-1.83-.83-2.23-.99c-14.32-5.74-32.97-5.76-47.29,0-.41.16-1.95.75-2.18.95-.27.23-.94,2.8-1.09,3.33-2.85,10.71-3.3,23.09,0,33.74,3.82,12.31,12.53,21.39,23.88,27.13.51.26,2.56,1.31,2.97,1.34.38.03,2.58-1.09,3.09-1.34,5.02-2.53,9.73-5.86,13.63-9.89Z"/>
      <path class="cls-2" d="M55.81,76.1c.08.11-.21.42-.37.37.11-.56-.79-.51-.83-.55s-.02-.5.18-.42c.25.11.62.61,1.01.6Z"/>
      <path class="cls-2" d="M54.39,80.49c-4.42,4.67-10.06,8.4-15.94,10.98-10.51-4.58-19.42-12.53-23.94-23.19-4.79-11.31-4.57-25.96-1.2-37.66.12-.4.35-1.43.64-1.66.39-.29,2.24-.93,2.82-1.14,13.54-4.96,31.53-4.97,44.9.58.3.12,1.27.52,1.41.71.23.31.65,2.04.78,2.53,4.44,16.74,2.83,35.88-9.48,48.86ZM37.58,26.06c-.1.32,0,1.99,0,2.49,0,.14.42.2.56.1.16-.11-.01-1.17.27-.88.17.17.03,1.15.83.92.1-.27-.28-.99-.26-1.13.03-.2.36-.32.36-.75.01-1.12-1.68-.99-1.76-.74ZM40.25,26.24c-.14.65.1,1.73,0,2.44.33-.06,1.52.27,1.71,0,.51-.73-.97-.51-1.06-.65-.31-.5.91-.32.92-.42.14-.76-.31-.47-.77-.59-.19-.05-.16-.43.17-.46.18-.02,1.06.32.95-.31-.05-.28-1.53-.41-1.74-.29-.04.03-.17.23-.18.28ZM36.75,28.68c.11-.11-.96-2.55-1.1-2.63-.11-.06-.17-.06-.28,0-.14.08-.95,2.44-.91,2.57.18.6.83-.28.88-.3.78-.26.69.29.78.34.1.07.47-.02.63.01ZM33.07,28.87c.27-.01.58.11.64-.23.03-.18-.15-2.35-.22-2.45-.09-.13-.47-.13-.56,0-.12.17,0,.7-.04.93-.86.19-.34-.69-.74-.88-.6-.29-.48.68-.46,1.02.02.26.15,1.45.23,1.61.1.23.43.2.55,0,.16-.26-.15-1.11.28-1.11.34,0,.33.88.32,1.11ZM43.67,28.21c-.08-.12.32-1.91.09-2.07-.13-.09-.4-.06-.52.05-.24.23-.21,2.23-.23,2.67.49-.08,1.96.49,1.75-.4-.05-.22-1-.1-1.1-.25ZM46.02,26.39c-.31.11-.42,2.25-.39,2.66.58.12,1.69.46,1.99-.23.28-.64-.19-.76-.19-1.02,0-.23.35-.39.11-.94-.15-.36-1.2-.58-1.53-.47ZM49.28,27.58c.12-.18,1.56.41,1.28-.4-.08-.25-1.42-.36-1.74-.42-.11.08-.5,2.48-.46,2.61.05.15,1.68.64,1.8.16.17-.68-1.17-.28-1.07-.79.08-.36,1.3.32,1-.54-.09-.25-1.09-.2-.82-.61ZM28.19,27.12c-1.07-.61-2.49.12-2.3,1.42.1.67.94,1.24,1.6,1.15.45-.06,1.46-.75.65-.83-.36-.03-.51.17-.75.19-.6.06-1.15-.81-.61-1.29.42-.38,1.25.08,1.4-.64ZM52.12,27.4c-.07-.11-.48-.18-.62.05-.09.16-.5,2.22-.46,2.36.05.19.39.34.53.24.11-.08.11-.82.33-.73.36.15.4,1.25,1.15,1.1.16-.52-.67-1.14-.54-1.59.08-.27,1.86-1.09.86-1.18-.52-.05-.87.47-1.33.65-.04-.23.19-.72.08-.91ZM24.32,29.33c.14.14.2.97.76.82s-.24-.83-.29-1.07c-.06-.28.42-.68.03-1.22-.11-.15-.46-.35-.64-.36-.3,0-1.13.17-1.11.55.01.2.52,2.16.59,2.25.25.29.55.06.56-.28,0-.04-.24-1.01.09-.69ZM22.76,30.43c-.09-.12-1.16-.54-1.26-.88-.02-.2.53-.95.58-1.24.09-.45-.42-.25-.61-.05s-.42.94-.46.97c-.25.19-.34-.62-.45-.7-.16-.11-.43-.02-.51.14-.08.15.51,2.39.61,2.47.06.05.5.03.6-.08.18-.24-.3-.78,0-.84.4.16.86.73,1.33.51.09-.04.25-.23.19-.32ZM55.08,28.87c.56-.12,1.12.51,1.36-.23-.02-.25-1.54-.68-1.73-.56s-.75,2.43-.63,2.62c.39.04,1.56.69,1.72.13.17-.6-1.09-.38-1-.81s1.23.36,1.08-.45c-.08-.43-1.04-.11-.81-.7ZM22.53,79.27c3.88,4.09,8.7,7.23,13.88,9.46.37.16,1.55.73,1.85.72.24-.01,1.3-.47,1.62-.59,10.91-4.28,19.19-12.3,22.72-23.6,2.7-8.65,2.62-19.5.43-28.27-.09-.36-.32-1.47-.53-1.68-.24-.24-1.86-.94-2.29-1.12-12.7-5.44-29.63-5.51-42.45-.42-.53.21-3.14,1.3-3.39,1.59-.18.2-.44,1.26-.52,1.59-.41,1.6-.69,3.32-.93,4.96-1.96,13.38.06,27.3,9.61,37.36ZM15.74,30.45c-1.43.27-.37,2.48.72,1.46.65-.61.02-1.6-.72-1.46ZM61.91,31.3c0-.47-.38-.85-.85-.85s-.85.38-.85.85.38.85.85.85.85-.38.85-.85Z"/>
      <path class="cls-2" d="M46.88,28.31c.15.2-.42.45-.55.14-.16-.4.53-.17.55-.14Z"/>
      <g>
        <path class="cls-2" d="M41.5,45.53c.27-.08.54-.94.5-1.24-.14-.95-1.16-.51-1.61-.05-.07-.53.5-.78.87-1.06-.04-.32-.38-.27-.6-.32-.08-.02-.21.04-.14-.13s.71-1.06.87-1.25c.14-.17.86-.73.87-.79.08-.47-1.29-.72-1.38-1.64-.11-1.25.17-2.75.75-3.86.41-.78.47-.68,1.18-.19s1.33,1.31,1.72,2.06c.12.23.48,1.37.55,1.38.45.12,1.2-1.31,1.06-1.75.3-.09.37.59.56.31.08-.11,0-.35.22-.32s.58.53.87.61c.64.17,2.56-.91,3.12-1.31.13-.09.71-.7.84-.59.23.86.27,1.59,0,2.44-.19.61-.87,1.55-.46,2.2.27.42,1.8.74,2.29.93.63.25,2.64,1.03,2.9,1.61.43.93-1,.52-1.34.69-.22.11-.18.66-.73.75-.98.15-1.9-1.02-2.98-.22-.37.27-.16.41-.29.72l-7.36,5.99c-.19.04-.16-.13-.2-.26-.44-1.51-.59-3.23-1.03-4.75l-.65-.05,1.43,6.17c.13.17.28.03.41-.06,2.28-1.48,4.51-3.88,6.78-5.47.16-.12.78-.55.92-.55h3.04s.14.13.14.14v8.01s-.13.14-.14.14h-3.87c-.19,0-.27-.95-1.11-.37l-10.13,10.32-.26.07-8.16-5.66c-.04-.2,1.69-2.2,1.96-2.52,1.49-1.73,3.27-3.33,4.51-5.26.18-.28.98-1.58.98-1.79,0-.09-.09-.23-.14-.23h-2.95s-.14-.13-.14-.14v-2.58s.13-.14.14-.14h6.17ZM47.82,40.67c0-.34-.27-.61-.61-.61s-.61.27-.61.61.27.61.61.61.61-.27.61-.61Z"/>
        <path class="cls-2" d="M54.89,54.37l-9.51,10.58c-.12-.03-.20-.10-.29-.17-.20-.15-1.53-1.37-1.62-1.51s-.12-.22-.02-.39l7.71-8.5h3.73Z"/>
        <rect class="cls-2" x="20.92" y="45.53" width="12.62" height="2.95"/>
        <path class="cls-2" d="M28.52,67.32c-.26.3-.57.89-.92.58l-2.6-2.2-.03-.12,5.24-6.28h.56s3.09,1.52,3.09,1.52c.07.11-.41.65-.51.78-1.5,1.9-3.23,3.89-4.82,5.72Z"/>
        <path class="cls-2" d="M34.52,61.94c.11-.03.21-.04.32,0,.82.47,1.74.77,2.58,1.2.18.09.64.24.61.46l-5.88,7.02-.21.03c-.74-.73-1.8-1.37-2.51-2.11-.11-.12-.27-.21-.22-.4l5.31-6.22Z"/>
        <path class="cls-2" d="M31.41,71.13l-5.89,7.14c-.14.08-.25-.03-.36-.1-.86-.56-1.73-1.51-2.54-2.16v-.27s5.21-6.13,5.21-6.13h.37s3.22,1.52,3.22,1.52Z"/>
        <path class="cls-2" d="M31.96,55.66c.04.17-.10.22-.18.32-.25.3-.6.67-.87.97s-1.23,1.37-1.48,1.47c-.68.28-2.66.44-3.4.37-.51-.05-1.59-.35-1.78-.89-.25-.73.62-.05.85-.02,1.17.16,3.18-.53,4.28-.97.89-.36,1.71-.85,2.58-1.24Z"/>
      </g>
    </g>
  </g>
</svg>
